<svg style="rotate: 180deg" width="192" height="192" viewBox="0 0 192 192" fill="none" xmlns="http://www.w3.org/2000/svg">
<g clip-path="url(#clip0_190_422)">
<path d="M133.694 122.605H147.425C149.312 122.605 150.857 121.067 150.857 119.172V57.3845C150.857 55.4901 149.319 53.9524 147.425 53.9524H133.694C131.8 53.9524 130.261 55.4903 130.261 57.3845V119.172C130.261 121.067 131.807 122.605 133.694 122.605Z" fill="black"/>
<path d="M54.2879 122.604C54.8407 122.698 80.7252 122.604 80.7252 122.604L77.1097 132.468C74.6151 139.281 76.2302 149.682 83.1521 153.38C85.4059 154.585 88.5549 155.189 91.0937 154.55C92.5496 154.184 93.8292 153.22 94.5919 151.929C95.469 150.443 95.3784 148.709 95.6908 147.062C96.4828 142.885 98.4567 138.913 101.513 135.932C106.843 130.734 123.398 115.739 123.398 115.739L123.398 60.8169H66.1877C58.4679 60.8123 53.4088 69.4332 57.2163 76.167C52.6777 79.0738 51.1254 85.1965 53.7836 89.8975C49.2448 92.8043 47.6927 98.927 50.3508 103.628C42.5198 108.643 45.1379 121.057 54.2879 122.604Z" fill="black"/>
</g>
<circle cx="96" cy="96" r="92.1905" stroke="black" stroke-width="7.61905"/>
<defs>
<clipPath id="clip0_190_422">
<rect width="105.142" height="105.142" fill="white" transform="matrix(-1 0 0 -1 150.857 156.952)"/>
</clipPath>
</defs>
</svg>
